HIERARCHY
ROOT Hips
{
    OFFSET   0.000000   0.000000   0.000000
    CHANNELS 6 Xposition Yposition Zposition Zrotation Xrotation Yrotation
    JOINT Chest
    {
        OFFSET   0.000000   8.007240   0.000000
        CHANNELS 3 Zrotation Xrotation Yrotation
        JOINT Chest2
        {
            OFFSET   0.000000  22.077100   0.000000
            CHANNELS 3 Zrotation Xrotation Yrotation
            JOINT Neck
            {
                OFFSET   0.000000  23.254800   0.000000
                CHANNELS 3 Zrotation Xrotation Yrotation
                JOINT Head
                {
                    OFFSET   0.000000  14.370000   1.956600
                    CHANNELS 3 Zrotation Xrotation Yrotation
                    End Site
                    {
                        OFFSET   0.000000  19.566000   0.000000
                    }
                }
            }
            JOINT LeftCollar
            {
                OFFSET   3.911900  19.017000  -0.467064
                CHANNELS 3 Zrotation Xrotation Yrotation
                JOINT LeftShoulder
                {
                    OFFSET  10.383700   0.000000   0.000000
                    CHANNELS 3 Zrotation Xrotation Yrotation
                    JOINT LeftElbow
                    {
                        OFFSET  26.662100   0.001476   0.000517
                        CHANNELS 3 Zrotation Xrotation Yrotation
                        JOINT LeftWrist
                        {
                            OFFSET  28.869000  -0.000025  -0.000106
                            CHANNELS 3 Zrotation Xrotation Yrotation
                            JOINT LeftFinger0
                            {
                                OFFSET   2.044660  -2.323460   3.252850
                                CHANNELS 3 Zrotation Xrotation Yrotation
                                JOINT LeftFinger01
                                {
                                    OFFSET   3.088130   0.000000   0.000000
                                    CHANNELS 3 Zrotation Xrotation Yrotation
                                    JOINT LeftFinger02
                                    {
                                        OFFSET   2.639460   0.000000   0.000000
                                        CHANNELS 3 Zrotation Xrotation Yrotation
                                        End Site
                                        {
                                            OFFSET   2.582190   0.000000   0.000000
                                        }
                                    }
                                }
                            }
                            JOINT LeftFinger1
                            {
                                OFFSET   8.364480   0.000000   3.252850
                                CHANNELS 3 Zrotation Xrotation Yrotation
                                JOINT LeftFinger11
                                {
                                    OFFSET   4.646930   0.000000   0.000000
                                    CHANNELS 3 Zrotation Xrotation Yrotation
                                    JOINT LeftFinger12
                                    {
                                        OFFSET   2.323460   0.000000   0.000000
                                        CHANNELS 3 Zrotation Xrotation Yrotation
                                        End Site
                                        {
                                            OFFSET   2.273050   0.000000   0.000000
                                        }
                                    }
                                }
                            }
                            JOINT LeftFinger2
                            {
                                OFFSET   8.364490   0.000015   1.078090
                                CHANNELS 3 Zrotation Xrotation Yrotation
                                JOINT LeftFinger21
                                {
                                    OFFSET   5.111620   0.000000   0.000000
                                    CHANNELS 3 Zrotation Xrotation Yrotation
                                    JOINT LeftFinger22
                                    {
                                        OFFSET   2.788160   0.000016   0.000000
                                        CHANNELS 3 Zrotation Xrotation Yrotation
                                        End Site
                                        {
                                            OFFSET   2.727660   0.000000   0.000000
                                        }
                                    }
                                }
                            }
                            JOINT LeftFinger3
                            {
                                OFFSET   7.899780   0.000017  -1.078090
                                CHANNELS 3 Zrotation Xrotation Yrotation
                                JOINT LeftFinger31
                                {
                                    OFFSET   4.646930   0.000000   0.000000
                                    CHANNELS 3 Zrotation Xrotation Yrotation
                                    JOINT LeftFinger32
                                    {
                                        OFFSET   2.323470   0.000000   0.000000
                                        CHANNELS 3 Zrotation Xrotation Yrotation
                                        End Site
                                        {
                                            OFFSET   2.273050   0.000000   0.000000
                                        }
                                    }
                                }
                            }
                            JOINT LeftFinger4
                            {
                                OFFSET   7.435090   0.000000  -3.252850
                                CHANNELS 3 Zrotation Xrotation Yrotation
                                JOINT LeftFinger41
                                {
                                    OFFSET   3.717550   0.000000   0.000000
                                    CHANNELS 3 Zrotation Xrotation Yrotation
                                    JOINT LeftFinger42
                                    {
                                        OFFSET   1.858770   0.000000   0.000000
                                        CHANNELS 3 Zrotation Xrotation Yrotation
                                        End Site
                                        {
                                            OFFSET   1.818440   0.000000   0.000000
                                        }
                                    }
                                }
                            }
                        }
                    }
                }
            }
            JOINT RightCollar
            {
                OFFSET  -3.911900  19.017000  -0.467063
                CHANNELS 3 Zrotation Xrotation Yrotation
                JOINT RightShoulder
                {
                    OFFSET -10.383700   0.000019   0.000000
                    CHANNELS 3 Zrotation Xrotation Yrotation
                    JOINT RightElbow
                    {
                        OFFSET -26.662100   0.001175   0.000102
                        CHANNELS 3 Zrotation Xrotation Yrotation
                        JOINT RightWrist
                        {
                            OFFSET -28.869000   0.000016  -0.000079
                            CHANNELS 3 Zrotation Xrotation Yrotation
                            JOINT RightFinger0
                            {
                                OFFSET  -2.044660  -2.323490   3.252850
                                CHANNELS 3 Zrotation Xrotation Yrotation
                                JOINT RightFinger01
                                {
                                    OFFSET  -3.088140   0.000000   0.000000
                                    CHANNELS 3 Zrotation Xrotation Yrotation
                                    JOINT RightFinger02
                                    {
                                        OFFSET  -2.639460   0.000000   0.000000
                                        CHANNELS 3 Zrotation Xrotation Yrotation
                                        End Site
                                        {
                                            OFFSET  -2.582190   0.000000   0.000000
                                        }
                                    }
                                }
                            }
                            JOINT RightFinger1
                            {
                                OFFSET  -8.364480   0.000000   3.252850
                                CHANNELS 3 Zrotation Xrotation Yrotation
                                JOINT RightFinger11
                                {
                                    OFFSET  -4.646930   0.000000   0.000000
                                    CHANNELS 3 Zrotation Xrotation Yrotation
                                    JOINT RightFinger12
                                    {
                                        OFFSET  -2.323470   0.000000   0.000000
                                        CHANNELS 3 Zrotation Xrotation Yrotation
                                        End Site
                                        {
                                            OFFSET  -2.273050   0.000000   0.000000
                                        }
                                    }
                                }
                            }
                            JOINT RightFinger2
                            {
                                OFFSET  -8.364480   0.000000   1.078090
                                CHANNELS 3 Zrotation Xrotation Yrotation
                                JOINT RightFinger21
                                {
                                    OFFSET  -5.111620   0.000000   0.000000
                                    CHANNELS 3 Zrotation Xrotation Yrotation
                                    JOINT RightFinger22
                                    {
                                        OFFSET  -2.788160   0.000000   0.000000
                                        CHANNELS 3 Zrotation Xrotation Yrotation
                                        End Site
                                        {
                                            OFFSET  -2.727660   0.000000   0.000000
                                        }
                                    }
                                }
                            }
                            JOINT RightFinger3
                            {
                                OFFSET  -7.899780   0.000000  -1.078090
                                CHANNELS 3 Zrotation Xrotation Yrotation
                                JOINT RightFinger31
                                {
                                    OFFSET  -4.646930   0.000000   0.000000
                                    CHANNELS 3 Zrotation Xrotation Yrotation
                                    JOINT RightFinger32
                                    {
                                        OFFSET  -2.323470   0.000000   0.000000
                                        CHANNELS 3 Zrotation Xrotation Yrotation
                                        End Site
                                        {
                                            OFFSET  -2.273050   0.000000   0.000000
                                        }
                                    }
                                }
                            }
                            JOINT RightFinger4
                            {
                                OFFSET  -7.435090   0.000000  -3.252850
                                CHANNELS 3 Zrotation Xrotation Yrotation
                                JOINT RightFinger41
                                {
                                    OFFSET  -3.717550   0.000000   0.000000
                                    CHANNELS 3 Zrotation Xrotation Yrotation
                                    JOINT RightFinger42
                                    {
                                        OFFSET  -1.858770   0.000000   0.000000
                                        CHANNELS 3 Zrotation Xrotation Yrotation
                                        End Site
                                        {
                                            OFFSET  -1.818440   0.000000   0.000000
                                        }
                                    }
                                }
                            }
                        }
                    }
                }
            }
        }
    }
    JOINT LeftHip
    {
        OFFSET   9.783040   0.000000   0.000000
        CHANNELS 3 Zrotation Xrotation Yrotation
        JOINT LeftKnee
        {
            OFFSET   0.000032 -41.789100  -0.002222
            CHANNELS 3 Zrotation Xrotation Yrotation
            JOINT LeftAnkle
            {
                OFFSET   0.000087 -41.133200  -0.000135
                CHANNELS 3 Zrotation Xrotation Yrotation
                JOINT LeftToe
                {
                    OFFSET   0.000000  -6.358960  14.674500
                    CHANNELS 3 Zrotation Xrotation Yrotation
                    End Site
                    {
                        OFFSET   0.000000   0.000000   3.913200
                    }
                }
            }
        }
    }
    JOINT RightHip
    {
        OFFSET  -9.783040   0.000000   0.000000
        CHANNELS 3 Zrotation Xrotation Yrotation
        JOINT RightKnee
        {
            OFFSET   0.000047 -41.789100  -0.000896
            CHANNELS 3 Zrotation Xrotation Yrotation
            JOINT RightAnkle
            {
                OFFSET  -0.000117 -41.133300  -0.000248
                CHANNELS 3 Zrotation Xrotation Yrotation
                JOINT RightToe
                {
                    OFFSET   0.000000  -6.358970  14.674500
                    CHANNELS 3 Zrotation Xrotation Yrotation
                    End Site
                    {
                        OFFSET   0.000000   0.000000   3.913200
                    }
                }
            }
        }
    }
}
MOTION
Frames: 4
Frame Time:   0.016667
 -0.244954  89.469500   0.111116  -6.151820 -15.921500  -9.840770   2.958400  10.967400  -1.229970   6.339740  21.850900  -3.136350  11.848400   6.703620  -1.402910  20.087300  11.860300  22.792400   0.457443   2.955050   0.992953 -68.688500  30.692100 -22.229700  -5.149910 -18.422100 -11.635700   7.018720  -5.720100  13.067700  40.464000  28.733200 -62.369800 -24.898100   0.003441   0.001653  -7.449030   0.002237  -0.000637 -35.050700   7.054660  -9.928340 -29.180000   0.003419   0.005721 -20.426000  -0.005578   0.005475 -28.692700   2.567580  -4.679060 -42.637700   0.008704   0.000130 -28.396700  -0.001283   0.008804 -28.757600  -0.582263   1.060990 -40.573900  -0.022258  -0.029319 -27.022200  -0.001234  -0.023907 -35.736500  -0.706917   0.982356 -53.613900  -0.013390  -0.046640 -35.706800   0.012259  -0.030379  -7.766910  -3.810900   4.432810  46.839100  36.976500  66.277900  -5.097860 -24.417800 109.415000 -59.037100 -15.231500 -13.474100 -48.983000  36.918000  65.729900  21.661500  -0.010994   0.004355   5.830760   0.001537   0.010881  35.425800   9.262620  12.750100  29.830500  -0.002630   0.000819  20.881400  -0.006202   0.007338  28.235200   5.268030   9.700950  38.611500   0.002704   0.003207  25.715200   0.000024   0.000688  30.414900   3.683880   6.242970  45.910500   0.007001  -0.000591  30.576400   0.006803   0.005308  52.567800  -5.556450  -4.238800  79.158400   0.006717  -0.006113  52.719500   0.000503  -0.005577   3.739010  20.971800   2.636970   1.431180   0.160258   3.759410  -2.728840  -4.273130  13.640400  -0.000000   0.000000  -0.000000   3.368690  13.326500  -5.551990   0.859410   6.603880   3.596000  -5.894080  -2.850330   4.709710  -0.000000   0.000000  -0.000000
 -0.255296  89.470800   0.104495  -6.146880 -15.927200  -9.842850   2.947660  10.967200  -1.230430   6.317520  21.850800  -3.134360  11.929400   6.738970  -1.420180  20.229300  11.898500  23.468900   0.494310   2.967140   0.992890 -68.709600  30.633200 -22.194200  -5.137210 -18.402200 -11.619200   7.015760  -5.734390  13.089600  40.454600  28.729100 -62.376200 -24.918700   0.001555   0.000801  -7.459360   0.002094  -0.000617 -35.075400   7.056020  -9.923050 -29.199900   0.001603   0.003189 -20.439900  -0.005578   0.003004 -28.693500   2.562680  -4.670040 -42.677800   0.009506   0.002720 -28.423400  -0.001285   0.007916 -28.757000  -0.596051   1.086090 -40.601600  -0.022693  -0.028795 -27.040700  -0.001235  -0.024000 -35.762100  -0.724116   1.005250 -53.652700  -0.014185  -0.046718 -35.732700   0.011085  -0.030574  -7.855340  -3.767010   4.300800  47.013000  36.954800  66.134400  -5.098530 -24.327000 109.344000 -58.774600 -14.118200 -12.445900 -49.003500  37.857800  66.022400  22.899900  -0.006487   0.002888   6.449960   0.001525   0.006386  35.448800   9.344220  12.849900  29.861200  -0.002600   0.000794  20.902800  -0.006375   0.007914  28.244400   5.256310   9.677300  38.802200   0.002735   0.003366  25.842300  -0.002890   0.000648  30.495100   3.673610   6.206300  46.042800   0.007061  -0.002903  30.664500   0.007143   0.005766  52.813900  -5.660970  -4.276540  79.536400   0.004667  -0.006195  52.971200   0.000281  -0.004561   3.742340  20.946400   2.631460   1.431610   0.214318   3.760670  -2.737500  -4.296360  13.640300  -0.000000   0.000000  -0.000000   3.373760  13.327800  -5.549120   0.853325   6.604260   3.592110  -5.896740  -2.849050   4.709540  -0.000000   0.000000   0.000000
 -0.264823  89.471100   0.096794  -6.142110 -15.932300  -9.844900   2.939560  10.966600  -1.228620   6.299900  21.850100  -3.128430  12.006600   6.765280  -1.435200  20.363500  11.922000  24.171900   0.525656   2.971270   0.993108 -68.708500  30.607800 -22.188400  -5.127760 -18.410100 -11.578100   7.006380  -5.756390  13.116800  40.428600  28.697900 -62.362400 -24.931800  -0.000577  -0.000179  -7.465900   0.001875  -0.000553 -35.097400   7.065350  -9.929130 -29.218300   0.000426   0.001136 -20.452800  -0.005582   0.001060 -28.693400   2.563530  -4.671590 -42.712200   0.010163   0.005019 -28.446300  -0.001286   0.006881 -28.756400  -0.611861   1.114880 -40.615400  -0.010572  -0.012571 -27.049800  -0.001233  -0.010820 -35.788600  -0.743851   1.031510 -53.693000  -0.006841  -0.020538 -35.760000   0.004057  -0.013675  -7.934200  -3.731960   4.172990  47.224000  36.919100  65.955700  -5.069330 -24.192000 109.375000 -58.560100 -13.160500 -11.612700 -49.242300  38.787200  66.860900  23.740200  -0.003617   0.001728   6.870110   0.001498   0.005741  35.309900   9.066050  12.500700  29.698000  -0.002579   0.000759  20.788600  -0.006521   0.008466  28.220200   5.274630   9.720200  38.476100   0.002758   0.003499  25.625000  -0.003954   0.000592  30.462100   3.676810   6.221170  45.993800   0.007142  -0.003983  30.631900   0.007521   0.006197  53.107100  -5.783650  -4.323430  79.987200   0.003287  -0.006271  53.271500   0.000044  -0.003550   3.743300  20.957000   2.628920   1.432110   0.192916   3.763220  -2.742390  -4.281070  13.640500  -0.000000   0.000000   0.000000   3.373350  13.331500  -5.546850   0.850703   6.599490   3.594240  -5.897910  -2.844290   4.709370  -0.000000   0.000000   0.000000
 -0.273189  89.471100   0.087871  -6.137950 -15.935700  -9.846790   2.934670  10.965900  -1.224180   6.289490  21.849100  -3.118810  12.073700   6.784020  -1.447430  20.479300  11.934800  24.868700   0.555441   2.973750   0.993325 -68.705800  30.595900 -22.187700  -5.122710 -18.428900 -11.531200   6.989330  -5.771130  13.134000  40.403800  28.664600 -62.351100 -24.938100  -0.001906  -0.000794  -7.469070   0.001598  -0.000474 -35.107600   7.080160  -9.944500 -29.229000  -0.000058  -0.000000 -20.460300  -0.005594   0.000000 -28.692500   2.569510  -4.682490 -42.731700   0.010687   0.007076 -28.459300  -0.001286   0.005739 -28.756100  -0.621751   1.132880 -40.620800   0.001548   0.003203 -27.053400  -0.001231   0.002359 -35.811600  -0.756200   1.047940 -53.727800   0.000502   0.005642 -35.782700  -0.001979   0.003224  -8.006870  -3.700790   4.046990  47.439800  36.876400  65.771600  -5.018470 -24.025900 109.460000 -58.447400 -12.239400 -10.837600 -49.611100  39.577100  68.067000  24.305900  -0.001533   0.000805   7.152970   0.001467   0.005539  35.034400   8.682610  12.148900  29.422900  -0.002561   0.000720  20.596000  -0.006653   0.008984  28.182900   5.302790   9.786190  37.974700   0.002781   0.003601  25.291100  -0.004532   0.000512  30.393300   3.683570   6.251520  45.891700   0.007241  -0.004651  30.563900   0.007917   0.006596  53.341300  -5.881620  -4.360810  80.347400   0.002141  -0.006309  53.511400  -0.000187  -0.002535   3.744050  20.967500   2.627020   1.432610   0.171514   3.766570  -2.748050  -4.262160  13.640700  -0.000000   0.000000   0.000000   3.371650  13.333900  -5.545600   0.849584   6.590850   3.601510  -5.898780  -2.836650   4.709250  -0.000000   0.000000   0.000000
